<?xml version="1.0" encoding="UTF-8" standalone="no"?>
<!-- Created with Inkscape (http://www.inkscape.org/) -->

<svg
   xmlns:osb="http://www.openswatchbook.org/uri/2009/osb"
   xmlns:dc="http://purl.org/dc/elements/1.1/"
   xmlns:cc="http://creativecommons.org/ns#"
   xmlns:rdf="http://www.w3.org/1999/02/22-rdf-syntax-ns#"
   xmlns:svg="http://www.w3.org/2000/svg"
   xmlns="http://www.w3.org/2000/svg"
   xmlns:xlink="http://www.w3.org/1999/xlink"
   xmlns:sodipodi="http://sodipodi.sourceforge.net/DTD/sodipodi-0.dtd"
   xmlns:inkscape="http://www.inkscape.org/namespaces/inkscape"
   width="82.05632mm"
   height="25.424242mm"
   viewBox="0 0 82.05632 25.424242"
   version="1.1"
   id="svg8"
   inkscape:version="0.92.5 (2060ec1f9f, 2020-04-08)"
   sodipodi:docname="freexian-hero.svg">
  <defs
     id="defs2">
    <linearGradient
       id="linearGradient1756"
       osb:paint="solid">
      <stop
         style="stop-color:#fdfdfd;stop-opacity:1;"
         offset="0"
         id="stop1754" />
    </linearGradient>
    <linearGradient
       id="linearGradient1700"
       osb:paint="solid">
      <stop
         style="stop-color:#fcfcfd;stop-opacity:1;"
         offset="0"
         id="stop1698" />
    </linearGradient>
    <linearGradient
       id="linearGradient1692"
       osb:paint="solid">
      <stop
         style="stop-color:#000000;stop-opacity:1;"
         offset="0"
         id="stop1690" />
    </linearGradient>
    <linearGradient
       id="linearGradient1612"
       osb:paint="solid">
      <stop
         style="stop-color:#fcfcfd;stop-opacity:1;"
         offset="0"
         id="stop1610" />
    </linearGradient>
    <linearGradient
       id="linearGradient2293"
       osb:paint="solid">
      <stop
         style="stop-color:#000000;stop-opacity:1;"
         offset="0"
         id="stop2291" />
    </linearGradient>
    <linearGradient
       id="linearGradient1712"
       osb:paint="solid">
      <stop
         style="stop-color:#fcfcfd;stop-opacity:1;"
         offset="0"
         id="stop1710" />
    </linearGradient>
    <linearGradient
       id="linearGradient1582"
       osb:paint="solid">
      <stop
         style="stop-color:#000000;stop-opacity:1;"
         offset="0"
         id="stop1580" />
    </linearGradient>
    <linearGradient
       id="linearGradient2274"
       osb:paint="solid">
      <stop
         style="stop-color:#000000;stop-opacity:1;"
         offset="0"
         id="stop2272" />
    </linearGradient>
    <linearGradient
       id="linearGradient2176"
       osb:paint="solid">
      <stop
         style="stop-color:#000000;stop-opacity:1;"
         offset="0"
         id="stop2174" />
    </linearGradient>
    <linearGradient
       id="linearGradient2117"
       osb:paint="solid">
      <stop
         style="stop-color:#000000;stop-opacity:1;"
         offset="0"
         id="stop2115" />
    </linearGradient>
    <linearGradient
       id="linearGradient2111"
       osb:paint="solid">
      <stop
         style="stop-color:#000000;stop-opacity:1;"
         offset="0"
         id="stop2109" />
    </linearGradient>
    <linearGradient
       id="linearGradient2064"
       osb:paint="solid">
      <stop
         style="stop-color:#000000;stop-opacity:1;"
         offset="0"
         id="stop2062" />
    </linearGradient>
    <linearGradient
       id="linearGradient2058"
       osb:paint="solid">
      <stop
         style="stop-color:#000000;stop-opacity:1;"
         offset="0"
         id="stop2056" />
    </linearGradient>
    <linearGradient
       id="linearGradient1830"
       osb:paint="solid">
      <stop
         style="stop-color:#000000;stop-opacity:1;"
         offset="0"
         id="stop1828" />
    </linearGradient>
    <linearGradient
       id="linearGradient1822"
       osb:paint="solid">
      <stop
         style="stop-color:#000000;stop-opacity:1;"
         offset="0"
         id="stop1820" />
    </linearGradient>
    <linearGradient
       id="linearGradient1728"
       osb:paint="solid">
      <stop
         style="stop-color:#000000;stop-opacity:1;"
         offset="0"
         id="stop1726" />
    </linearGradient>
    <linearGradient
       id="linearGradient1491"
       osb:paint="solid">
      <stop
         style="stop-color:#000000;stop-opacity:1;"
         offset="0"
         id="stop1489" />
    </linearGradient>
    <linearGradient
       id="linearGradient1400"
       osb:paint="solid">
      <stop
         style="stop-color:#000000;stop-opacity:1;"
         offset="0"
         id="stop1398" />
    </linearGradient>
    <linearGradient
       id="linearGradient1346"
       osb:paint="solid">
      <stop
         style="stop-color:#000000;stop-opacity:1;"
         offset="0"
         id="stop1343" />
    </linearGradient>
    <linearGradient
       id="linearGradient1757"
       osb:paint="solid">
      <stop
         style="stop-color:#000000;stop-opacity:1;"
         offset="0"
         id="stop1755" />
    </linearGradient>
    <linearGradient
       id="linearGradient1747"
       osb:paint="solid">
      <stop
         style="stop-color:#000000;stop-opacity:1;"
         offset="0"
         id="stop1745" />
    </linearGradient>
    <linearGradient
       id="linearGradient1741"
       osb:paint="solid">
      <stop
         style="stop-color:#000000;stop-opacity:1;"
         offset="0"
         id="stop1739" />
    </linearGradient>
    <linearGradient
       id="linearGradient1735"
       osb:paint="solid">
      <stop
         style="stop-color:#000000;stop-opacity:1;"
         offset="0"
         id="stop1733" />
    </linearGradient>
    <linearGradient
       id="linearGradient1725"
       osb:paint="solid">
      <stop
         style="stop-color:#000000;stop-opacity:1;"
         offset="0"
         id="stop1723" />
    </linearGradient>
    <linearGradient
       id="linearGradient1719"
       osb:paint="solid">
      <stop
         style="stop-color:#000000;stop-opacity:1;"
         offset="0"
         id="stop1717" />
    </linearGradient>
    <linearGradient
       id="linearGradient1218"
       osb:paint="solid">
      <stop
         style="stop-color:#000000;stop-opacity:1;"
         offset="0"
         id="stop1216" />
    </linearGradient>
    <linearGradient
       id="linearGradient2660"
       osb:paint="solid">
      <stop
         style="stop-color:#000000;stop-opacity:1;"
         offset="0"
         id="stop2658" />
    </linearGradient>
    <linearGradient
       id="linearGradient1549"
       osb:paint="solid">
      <stop
         style="stop-color:#2f4858;stop-opacity:1;"
         offset="0"
         id="stop1547" />
    </linearGradient>
    <linearGradient
       id="Text_color"
       osb:paint="solid">
      <stop
         style="stop-color:#1b1e29;stop-opacity:1;"
         offset="0"
         id="stop1501" />
    </linearGradient>
    <linearGradient
       id="linearGradient1497"
       osb:paint="solid">
      <stop
         style="stop-color:#000000;stop-opacity:1;"
         offset="0"
         id="stop1495" />
    </linearGradient>
    <linearGradient
       id="linearGradient1481"
       osb:paint="solid">
      <stop
         style="stop-color:#000000;stop-opacity:1;"
         offset="0"
         id="stop1479" />
    </linearGradient>
    <linearGradient
       id="linearGradient1376"
       osb:paint="solid">
      <stop
         style="stop-color:#aa0000;stop-opacity:1;"
         offset="0"
         id="stop1374" />
    </linearGradient>
    <linearGradient
       id="linearGradient1370"
       osb:paint="solid">
      <stop
         style="stop-color:#830000;stop-opacity:1;"
         offset="0"
         id="stop1368" />
    </linearGradient>
    <linearGradient
       id="debian-color"
       osb:paint="solid">
      <stop
         style="stop-color:#ce0056;stop-opacity:1;"
         offset="0"
         id="stop1362" />
    </linearGradient>
    <linearGradient
       inkscape:collect="always"
       xlink:href="#Text_color"
       id="linearGradient2376"
       gradientUnits="userSpaceOnUse"
       x1="59.695957"
       y1="226.72217"
       x2="96.147697"
       y2="226.72217" />
    <linearGradient
       inkscape:collect="always"
       xlink:href="#Text_color"
       id="linearGradient2378"
       gradientUnits="userSpaceOnUse"
       x1="59.695957"
       y1="226.72217"
       x2="96.147697"
       y2="226.72217" />
    <linearGradient
       inkscape:collect="always"
       xlink:href="#Text_color"
       id="linearGradient2380"
       gradientUnits="userSpaceOnUse"
       x1="59.695957"
       y1="226.72217"
       x2="96.147697"
       y2="226.72217" />
    <linearGradient
       inkscape:collect="always"
       xlink:href="#Text_color"
       id="linearGradient2382"
       gradientUnits="userSpaceOnUse"
       x1="59.695957"
       y1="226.72217"
       x2="96.147697"
       y2="226.72217" />
    <linearGradient
       inkscape:collect="always"
       xlink:href="#debian-color"
       id="linearGradient2384"
       gradientUnits="userSpaceOnUse"
       x1="59.695957"
       y1="226.72217"
       x2="96.147697"
       y2="226.72217" />
    <linearGradient
       inkscape:collect="always"
       xlink:href="#Text_color"
       id="linearGradient2386"
       gradientUnits="userSpaceOnUse"
       x1="59.695957"
       y1="226.72217"
       x2="96.147697"
       y2="226.72217" />
    <linearGradient
       inkscape:collect="always"
       xlink:href="#Text_color"
       id="linearGradient2388"
       gradientUnits="userSpaceOnUse"
       x1="59.695957"
       y1="226.72217"
       x2="96.147697"
       y2="226.72217" />
    <linearGradient
       inkscape:collect="always"
       xlink:href="#Text_color"
       id="linearGradient2390"
       gradientUnits="userSpaceOnUse"
       x1="59.695957"
       y1="226.72217"
       x2="96.147697"
       y2="226.72217" />
    <linearGradient
       inkscape:collect="always"
       xlink:href="#Text_color"
       id="linearGradient2392"
       gradientUnits="userSpaceOnUse"
       x1="59.695957"
       y1="226.72217"
       x2="96.147697"
       y2="226.72217" />
    <linearGradient
       inkscape:collect="always"
       xlink:href="#debian-color"
       id="linearGradient2394"
       gradientUnits="userSpaceOnUse"
       gradientTransform="matrix(-1.017573,-0.19236629,0.19236629,-1.017573,450.5892,-32.035934)"
       x1="312.46295"
       y1="-137.30832"
       x2="332.54126"
       y2="-137.30832" />
    <linearGradient
       inkscape:collect="always"
       xlink:href="#debian-color"
       id="linearGradient2396"
       gradientUnits="userSpaceOnUse"
       gradientTransform="matrix(0.94856307,0,0,0.94754797,-113.5647,-444.58946)"
       x1="149.52899"
       y1="511.74734"
       x2="178.17393"
       y2="511.74734" />
    <linearGradient
       inkscape:collect="always"
       xlink:href="#linearGradient1756"
       id="linearGradient2155"
       gradientUnits="userSpaceOnUse"
       x1="24.279125"
       y1="47.054752"
       x2="106.33544"
       y2="47.054752" />
  </defs>
  <sodipodi:namedview
     id="base"
     pagecolor="#ffffff"
     bordercolor="#666666"
     borderopacity="1.0"
     inkscape:pageopacity="0.0"
     inkscape:pageshadow="2"
     inkscape:zoom="0.49497475"
     inkscape:cx="880.31923"
     inkscape:cy="-469.02075"
     inkscape:document-units="mm"
     inkscape:current-layer="layer1"
     showgrid="false"
     inkscape:window-width="1920"
     inkscape:window-height="1056"
     inkscape:window-x="1920"
     inkscape:window-y="0"
     inkscape:window-maximized="1" />
  <metadata
     id="metadata5">
    <rdf:RDF>
      <cc:Work
         rdf:about="">
        <dc:format>image/svg+xml</dc:format>
        <dc:type
           rdf:resource="http://purl.org/dc/dcmitype/StillImage" />
        <dc:title></dc:title>
      </cc:Work>
    </rdf:RDF>
  </metadata>
  <g
     inkscape:groupmode="layer"
     id="layer2"
     inkscape:label="Layer 2"
     transform="translate(-21.904875,-34.342629)" />
  <g
     inkscape:label="Layer 1"
     inkscape:groupmode="layer"
     id="layer1"
     transform="translate(-21.904875,-34.342629)">
    <g
       id="g1454"
       transform="translate(-88.166891,-772.72268)"
       inkscape:export-filename="/home/funelie/Documents/00CLOUDPERSO/freexian/proposition01064.png"
       inkscape:export-xdpi="300"
       inkscape:export-ydpi="300" />
    <g
       id="g1642"
       transform="translate(-2.3742504)">
      <g
         inkscape:export-ydpi="300"
         inkscape:export-xdpi="300"
         inkscape:export-filename="/home/funelie/Documents/00CLOUDPERSO/freexian/proposition13061.png"
         transform="matrix(1.4399288,0,0,1.4399288,-57.218324,-280.75093)"
         id="g2368"
         style="font-style:normal;font-variant:normal;font-weight:normal;font-stretch:normal;font-size:11.28888893px;line-height:1.25;font-family:'Gnomon*';-inkscape-font-specification:'Gnomon*, Normal';font-variant-ligatures:normal;font-variant-caps:normal;font-variant-numeric:normal;font-feature-settings:normal;text-align:center;letter-spacing:0px;word-spacing:0px;writing-mode:lr-tb;text-anchor:middle;fill:url(#linearGradient2392);fill-opacity:1;stroke:none;stroke-width:0.1837475"
         aria-label="freexian">
        <path
           inkscape:connector-curvature="0"
           id="path2352"
           style="font-style:normal;font-variant:normal;font-weight:normal;font-stretch:normal;font-size:11.28888893px;font-family:'Gnomon*';-inkscape-font-specification:'Gnomon*, Normal';font-variant-ligatures:normal;font-variant-caps:normal;font-variant-numeric:normal;font-feature-settings:normal;text-align:center;writing-mode:lr-tb;text-anchor:middle;fill:url(#linearGradient2376);fill-opacity:1;stroke-width:0.1837475"
           d="m 61.716668,230.23866 v -3.21734 h 0.970845 v -1.12889 h -0.948267 q 0.04516,-0.3048 0.180622,-0.4064 0.135467,-0.1016 0.327378,-0.1016 0.158044,0 0.395111,0.13547 0.248356,0.12418 0.587022,0.45156 l 0.451556,-1.12889 q -0.282222,-0.25965 -0.519289,-0.41769 -0.225778,-0.15805 -0.496711,-0.21449 -0.259645,-0.0677 -0.643467,-0.0677 -0.428978,0 -0.857955,0.2032 -0.417689,0.2032 -0.699911,0.58702 -0.270934,0.37253 -0.270934,0.92569 v 0.0339 h -0.496711 v 1.12889 h 0.496711 v 3.21734 z" />
        <path
           inkscape:connector-curvature="0"
           id="path2354"
           style="font-style:normal;font-variant:normal;font-weight:normal;font-stretch:normal;font-size:11.28888893px;font-family:'Gnomon*';-inkscape-font-specification:'Gnomon*, Normal';font-variant-ligatures:normal;font-variant-caps:normal;font-variant-numeric:normal;font-feature-settings:normal;text-align:center;writing-mode:lr-tb;text-anchor:middle;fill:url(#linearGradient2378);fill-opacity:1;stroke-width:0.1837475"
           d="m 67.451404,226.60363 q -0.112889,-0.14675 -0.259644,-0.32737 -0.146756,-0.18063 -0.361245,-0.3048 -0.214488,-0.13547 -0.530577,-0.13547 -0.316089,0 -0.643467,0.24835 -0.327378,0.24836 -0.575733,0.65476 l -0.1016,-0.84667 h -1.298223 v 4.34623 h 1.524 v -2.70934 q 0.146756,-0.14675 0.316089,-0.23706 0.169334,-0.1016 0.327378,-0.1016 0.316089,0 0.451556,0.15804 0.135466,0.14676 0.3048,0.38382 z" />
        <path
           inkscape:connector-curvature="0"
           id="path2356"
           style="font-style:normal;font-variant:normal;font-weight:normal;font-stretch:normal;font-size:11.28888893px;font-family:'Gnomon*';-inkscape-font-specification:'Gnomon*, Normal';font-variant-ligatures:normal;font-variant-caps:normal;font-variant-numeric:normal;font-feature-settings:normal;text-align:center;writing-mode:lr-tb;text-anchor:middle;fill:url(#linearGradient2380);fill-opacity:1;stroke-width:0.1837475"
           d="m 67.902945,228.07119 q 0,0.7112 0.316089,1.23049 0.327377,0.508 0.869244,0.77893 0.553156,0.27093 1.207911,0.27093 0.575733,0 1.049867,-0.18062 0.474133,-0.18062 0.778933,-0.55315 l -0.677333,-1.04987 q -0.180622,0.28222 -0.428978,0.47413 -0.248356,0.18063 -0.6096,0.18063 -0.259644,0 -0.462844,-0.1016 -0.191912,-0.1016 -0.327378,-0.27094 l 2.731911,-1.00471 q 0,-0.59831 -0.270933,-1.06115 -0.259645,-0.47414 -0.756356,-0.73378 -0.485422,-0.27094 -1.140178,-0.27094 -0.654755,0 -1.174044,0.28223 -0.519289,0.27093 -0.8128,0.79022 -0.293511,0.508 -0.293511,1.2192 z m 3.138311,-0.83538 -1.7272,0.65476 q 0.02258,-0.38383 0.225778,-0.69991 0.214488,-0.32738 0.677333,-0.32738 0.282222,0 0.485422,0.1016 0.214489,0.1016 0.338667,0.27093 z" />
        <path
           inkscape:connector-curvature="0"
           id="path2358"
           style="font-style:normal;font-variant:normal;font-weight:normal;font-stretch:normal;font-size:11.28888893px;font-family:'Gnomon*';-inkscape-font-specification:'Gnomon*, Normal';font-variant-ligatures:normal;font-variant-caps:normal;font-variant-numeric:normal;font-feature-settings:normal;text-align:center;writing-mode:lr-tb;text-anchor:middle;fill:url(#linearGradient2382);fill-opacity:1;stroke-width:0.1837475"
           d="m 73.197433,228.07119 q 0,0.7112 0.316089,1.23049 0.327377,0.508 0.869244,0.77893 0.553156,0.27093 1.207911,0.27093 0.575733,0 1.049867,-0.18062 0.474133,-0.18062 0.778933,-0.55315 l -0.677333,-1.04987 q -0.180622,0.28222 -0.428978,0.47413 -0.248356,0.18063 -0.6096,0.18063 -0.259644,0 -0.462844,-0.1016 -0.191912,-0.1016 -0.327378,-0.27094 l 2.731911,-1.00471 q 0,-0.59831 -0.270933,-1.06115 -0.259645,-0.47414 -0.756356,-0.73378 -0.485422,-0.27094 -1.140178,-0.27094 -0.654755,0 -1.174044,0.28223 -0.519289,0.27093 -0.8128,0.79022 -0.293511,0.508 -0.293511,1.2192 z m 3.138311,-0.83538 -1.7272,0.65476 q 0.02258,-0.38383 0.225778,-0.69991 0.214488,-0.32738 0.677333,-0.32738 0.282222,0 0.485422,0.1016 0.214489,0.1016 0.338667,0.27093 z" />
        <path
           inkscape:connector-curvature="0"
           id="path2360"
           style="font-style:normal;font-variant:normal;font-weight:normal;font-stretch:normal;font-size:11.28888893px;font-family:'Gnomon*';-inkscape-font-specification:'Gnomon*, Normal';font-variant-ligatures:normal;font-variant-caps:normal;font-variant-numeric:normal;font-feature-settings:normal;text-align:center;writing-mode:lr-tb;text-anchor:middle;fill:url(#linearGradient2384);fill-opacity:1;stroke-width:0.1837475"
           d="m 80.659386,226.87457 -0.756355,-0.98214 h -1.749778 l 1.636889,2.09974 -1.749778,2.24649 h 1.749778 l 0.869244,-1.1176 0.880534,1.1176 h 1.749777 l -1.749777,-2.24649 1.636889,-2.09974 h -1.749778 z" />
        <path
           inkscape:connector-curvature="0"
           id="path2362"
           style="font-style:normal;font-variant:normal;font-weight:normal;font-stretch:normal;font-size:11.28888893px;font-family:'Gnomon*';-inkscape-font-specification:'Gnomon*, Normal';font-variant-ligatures:normal;font-variant-caps:normal;font-variant-numeric:normal;font-feature-settings:normal;text-align:center;writing-mode:lr-tb;text-anchor:middle;fill:url(#linearGradient2386);fill-opacity:1;stroke-width:0.1837475"
           d="m 84.057322,230.23866 h 1.524 v -4.34623 h -1.524 z m 0.756355,-4.98969 1.083734,-1.07245 -1.083734,-1.08373 -1.072444,1.08373 z" />
        <path
           inkscape:connector-curvature="0"
           id="path2364"
           style="font-style:normal;font-variant:normal;font-weight:normal;font-stretch:normal;font-size:11.28888893px;font-family:'Gnomon*';-inkscape-font-specification:'Gnomon*, Normal';font-variant-ligatures:normal;font-variant-caps:normal;font-variant-numeric:normal;font-feature-settings:normal;text-align:center;writing-mode:lr-tb;text-anchor:middle;fill:url(#linearGradient2388);fill-opacity:1;stroke-width:0.1837475"
           d="m 89.272788,228.00346 q -0.214489,-0.12418 -0.508,-0.21449 -0.293511,-0.0903 -0.643467,-0.0903 -0.654756,0 -1.106311,0.31608 -0.440267,0.3048 -0.440267,0.95956 0,0.55316 0.2032,0.84667 0.214489,0.29351 0.530578,0.41769 0.327378,0.11288 0.643467,0.11288 0.440266,0 0.767644,-0.15804 0.338667,-0.16933 0.553156,-0.4064 v 0.45156 h 1.524 v -2.73192 q 0,-0.82408 -0.440267,-1.27564 -0.428978,-0.45156 -1.162756,-0.45156 -0.654755,0 -1.241777,0.25965 -0.587023,0.24835 -1.095023,0.56444 l 0.564445,0.79023 q 0.338667,-0.23707 0.688622,-0.32738 0.361245,-0.1016 0.519289,-0.1016 0.4064,0 0.519289,0.2032 0.124178,0.19191 0.124178,0.67733 z m 0,0.73377 v 0.45156 q -0.112889,0.12418 -0.282223,0.21449 -0.158044,0.0903 -0.361244,0.0903 -0.237067,0 -0.327378,-0.16933 -0.09031,-0.18063 -0.09031,-0.33867 0,-0.15805 0.112889,-0.3048 0.124178,-0.14676 0.361244,-0.14676 0.248356,0 0.372534,0.0677 0.135466,0.0677 0.214489,0.13546 z" />
        <path
           inkscape:connector-curvature="0"
           id="path2366"
           style="font-style:normal;font-variant:normal;font-weight:normal;font-stretch:normal;font-size:11.28888893px;font-family:'Gnomon*';-inkscape-font-specification:'Gnomon*, Normal';font-variant-ligatures:normal;font-variant-caps:normal;font-variant-numeric:normal;font-feature-settings:normal;text-align:center;writing-mode:lr-tb;text-anchor:middle;fill:url(#linearGradient2390);fill-opacity:1;stroke-width:0.1837475"
           d="m 91.699878,230.23866 h 1.524 v -2.70934 q 0.158044,-0.23706 0.383822,-0.39511 0.237067,-0.16933 0.485422,-0.16933 0.237067,0 0.383823,0.2032 0.146755,0.19191 0.146755,0.67733 v 2.39325 h 1.524 v -2.73192 q 0,-0.82408 -0.383822,-1.27564 -0.372533,-0.45156 -1.106311,-0.45156 -0.383822,0 -0.767645,0.24836 -0.383822,0.24836 -0.666044,0.67733 v -0.8128 h -1.524 z" />
      </g>
      <path
         inkscape:export-ydpi="300"
         inkscape:export-xdpi="300"
         inkscape:export-filename="/home/funelie/Documents/00CLOUDPERSO/freexian/proposition13061.png"
         sodipodi:nodetypes="ccccccscsccccccccccccccccsccsccccccscsccccccccc"
         inkscape:connector-curvature="0"
         id="path2370"
         d="m 95.401926,34.342766 c -0.77052,0.004 -1.53686,0.0964 -2.28825,0.27493 -2.59078,0.61272 -4.59354,2.25998 -5.75726,4.1 -0.6496,1.02711 -1.08447,2.17612 -1.24695,3.38016 -0.16425,1.21706 -0.0492,2.48665 0.39997,3.72587 0.61465,1.58575 1.87952,2.99957 3.5202,3.75791 0.73517,0.33981 1.57787,0.5595 2.47065,0.55345 0.81593,-0.006 1.6658,-0.20082 2.47632,-0.65991 0.41637,-0.27746 0.7883,-0.65341 1.08418,-1.08055 0.27057,-0.39058 0.49282,-0.84665 0.60979,-1.32808 0.10766,-0.44316 0.12732,-0.91486 0,-1.35599 -0.11814,-0.40932 -0.35502,-0.76652 -0.72761,-1.05007 0.23522,0.40375 0.25781,0.78233 0.19482,1.08934 -0.0683,0.33296 -0.24493,0.62568 -0.45011,0.86041 -0.22768,0.26047 -0.50602,0.46737 -0.77875,0.60772 -0.3029,0.15585 -0.59108,0.22598 -0.80978,0.21859 -0.50901,0.11147 -0.94896,0.0465 -1.30482,-0.0801 -0.39746,-0.14137 -0.74719,-0.37927 -1.03508,-0.65371 -0.67104,-0.63967 -1.01835,-1.47066 -1.07953,-2.13889 -0.10609,-0.59296 -0.0563,-1.1419 0.0832,-1.63607 0.14029,-0.49684 0.38606,-0.98768 0.72864,-1.44332 0.62899,-0.83662 1.62319,-1.59433 2.82205,-1.89705 0.75834,-0.18884 1.5417,-0.21575 2.33214,-0.0641 0.72083,0.13832 1.47084,0.43109 2.19369,0.90744 1.244384,0.82008 2.447794,2.23156 2.924364,4.09949 0.40661,1.67107 0.25707,3.47605 -0.56484,5.21312 -0.18954,0.4006 -0.40116,0.79504 -0.6351,1.17977 -1.960144,3.25726 -5.960224,4.90699 -8.885244,5.66323 -3.7783,0.94622 -7.74928,0.96695 -11.19674,0.61546 -0.43545,-0.0444 -0.85146,-0.0937 -1.24487,-0.14521 -3.58423,-0.46964 -6.75582,-1.36264 -9.17982,-2.20607 -0.90739,-0.31573 -1.73175,-0.63151 -2.46806,-0.93069 -0.54983,-0.22342 -1.07286,-0.443 -1.58441,-0.67128 -1.57199,-0.70153 -2.46398,-1.23767 -2.91298,-1.56424 h -2.10475 c 3.40813,2.31021 5.63282,3.19354 6.16339,3.50017 0.71858,0.41528 1.43684,0.66336 2.35182,1.06854 2.44618,1.08326 5.6938,2.1409 9.41493,2.82722 0.4087,0.0754 0.84153,0.14895 1.29604,0.21859 3.56549,0.54633 7.84603,0.73981 12.05145,-0.1173 4.96943,-1.04757 8.372214,-2.50181 11.415344,-5.96346 0.41164,-0.49173 0.78253,-1.02425 1.10226,-1.59371 1.39316,-2.48136 1.85756,-5.2736 1.35908,-7.99692 -0.56028,-3.15671 -2.39368,-5.6513 -4.4695,-7.18716 -1.21785,-0.90107 -2.567094,-1.51842 -3.956344,-1.83865 -0.76824,-0.17708 -1.54305,-0.26263 -2.31354,-0.2589 z"
         style="fill:url(#linearGradient2394);fill-opacity:1;fill-rule:nonzero;stroke:none;stroke-width:0.26458332" />
      <path
         inkscape:export-ydpi="300"
         inkscape:export-xdpi="300"
         inkscape:export-filename="/home/funelie/Documents/00CLOUDPERSO/freexian/proposition13061.png"
         sodipodi:nodetypes="ccccccscccccccc"
         inkscape:connector-curvature="0"
         id="path2372"
         d="m 24.279125,39.678016 c 1.007672,-0.3992 2.791777,-0.98356 5.385606,-1.48223 0.463322,-0.0891 0.972079,-0.17824 1.523145,-0.26124 2.621927,-0.39489 5.393041,-0.5273 8.17832,-0.29608 0.70663,0.0587 1.35126,0.13544 1.93385,0.21955 1.66739,0.24072 3.64993,0.77114 5.14492,1.21605 0.32919,0.098 0.69154,0.20698 1.08373,0.33368 1.43191,0.46259 2.90334,1.04981 4.38589,1.91185 1.46041,0.84916 2.51098,1.72826 3.11595,2.30199 h 2.12612 c -4.51935,-5.11029 -8.03017,-6.76223 -15.64505,-7.52193 -0.62234,-0.0609 -1.31048,-0.10578 -2.05791,-0.12367 -2.919054,-0.0699 -5.844652,0.29312 -8.468296,0.95197 -0.557101,0.1399 -1.068842,0.28522 -1.531563,0.42893 -2.566158,0.79703 -4.282396,1.77414 -5.174712,2.32113 z"
         style="fill:url(#linearGradient2396);fill-rule:nonzero;stroke:none;stroke-width:0.86500007;stroke-linecap:round;stroke-linejoin:round;stroke-miterlimit:4;stroke-dasharray:none;stroke-opacity:1" />
    </g>
  </g>
</svg>
